<svg width="79" height="79" viewBox="0 0 79 79" fill="none" xmlns="http://www.w3.org/2000/svg">
<path d="M47.9925 37.1958C49.4885 35.326 50.3117 33.0071 50.3296 30.6125C50.3296 27.7403 49.1886 24.9858 47.1577 22.9548C45.1267 20.9239 42.3722 19.7829 39.5 19.7829C36.6278 19.7829 33.8733 20.9239 31.8423 22.9548C29.8114 24.9858 28.6704 27.7403 28.6704 30.6125C28.6883 33.0071 29.5115 35.326 31.0075 37.1958C28.0734 38.9814 25.7714 41.6402 24.4242 44.7996C24.2356 45.2005 24.1299 45.6353 24.1134 46.0779C24.0968 46.5206 24.1699 46.9621 24.328 47.3759C24.4862 47.7897 24.7262 48.1673 25.0338 48.4862C25.3414 48.805 25.7102 49.0584 26.118 49.2313C26.5259 49.4042 26.9645 49.493 27.4075 49.4924C27.8505 49.4917 28.2888 49.4017 28.6961 49.2276C29.1035 49.0536 29.4716 48.7991 29.7782 48.4794C30.0849 48.1597 30.3239 47.7814 30.4808 47.3671C31.2374 45.5986 32.4939 44.0896 34.0961 43.0254C35.6984 41.9611 37.5765 41.3879 39.5 41.3763C41.4291 41.3815 43.3143 41.9517 44.923 43.0163C46.5317 44.081 47.7933 45.5935 48.5521 47.3671C48.8041 47.9621 49.2256 48.4697 49.7641 48.8268C50.3026 49.1838 50.9343 49.3745 51.5804 49.375C52.0209 49.3668 52.456 49.2775 52.8642 49.1117C53.6669 48.7707 54.3015 48.1251 54.6286 47.3166C54.9557 46.5081 54.9485 45.6028 54.6088 44.7996C53.2528 41.6355 50.9389 38.9761 47.9925 37.1958ZM39.5 34.7929C38.6588 34.7929 37.8365 34.543 37.1375 34.075C36.4385 33.6069 35.8943 32.9418 35.5739 32.164C35.2535 31.3861 35.1714 30.5307 35.3379 29.7061C35.5044 28.8815 35.9121 28.125 36.5093 27.5325C37.1064 26.9399 37.8661 26.5381 38.692 26.378C39.5178 26.2179 40.3726 26.3067 41.1479 26.6332C41.9232 26.9596 42.5841 27.509 43.0467 28.2116C43.5093 28.9142 43.7528 29.7384 43.7463 30.5796C43.7376 31.7001 43.2864 32.7717 42.491 33.5609C41.6956 34.3501 40.6205 34.793 39.5 34.7929ZM59.25 6.58334H19.75C17.131 6.58334 14.6192 7.62374 12.7673 9.47566C10.9154 11.3276 9.875 13.8393 9.875 16.4583V52.6667C9.875 55.2857 10.9154 57.7974 12.7673 59.6494C14.6192 61.5013 17.131 62.5417 19.75 62.5417H28.2754L37.1629 71.4621C37.4705 71.7672 37.8353 72.0085 38.2363 72.1723C38.6374 72.3362 39.0668 72.4192 39.5 72.4167C40.2846 72.4167 41.0433 72.1366 41.6396 71.6267L52.2388 62.5417H59.25C61.869 62.5417 64.3808 61.5013 66.2327 59.6494C68.0846 57.7974 69.125 55.2857 69.125 52.6667V16.4583C69.125 13.8393 68.0846 11.3276 66.2327 9.47566C64.3808 7.62374 61.869 6.58334 59.25 6.58334ZM62.5417 52.6667C62.5417 53.5397 62.1949 54.3769 61.5776 54.9942C60.9603 55.6115 60.123 55.9583 59.25 55.9583H51.0208C50.2363 55.9583 49.4775 56.2384 48.8813 56.7483L39.6646 64.6483L31.9621 56.9129C31.6545 56.6079 31.2897 56.3665 30.8887 56.2027C30.4876 56.0389 30.0582 55.9558 29.625 55.9583H19.75C18.877 55.9583 18.0397 55.6115 17.4224 54.9942C16.8051 54.3769 16.4583 53.5397 16.4583 52.6667V16.4583C16.4583 15.5853 16.8051 14.7481 17.4224 14.1308C18.0397 13.5135 18.877 13.1667 19.75 13.1667H59.25C60.123 13.1667 60.9603 13.5135 61.5776 14.1308C62.1949 14.7481 62.5417 15.5853 62.5417 16.4583V52.6667Z" fill="url(#paint0_linear_1_807)"/>
<defs>
<linearGradient id="paint0_linear_1_807" x1="9.875" y1="39.5" x2="97.2687" y2="39.5" gradientUnits="userSpaceOnUse">
<stop stop-color="#DC5435"/>
<stop offset="1" stop-color="#E07B37"/>
</linearGradient>
</defs>
</svg>
